<svg width="20" height="20" viewBox="0 0 20 20" fill="none" xmlns="http://www.w3.org/2000/svg">
  <path
    d="M16.7134 3.09509C15.5533 1.95715 14.0195 1.33032 12.3949 1.33032C10.7252 1.33032 9.16169 1.98664 7.99257 3.17834C6.83925 4.35396 6.21242 5.90889 6.22823 7.55596C6.24065 8.86705 6.66018 10.1108 7.42332 11.1459L5.9858 12.6106L2.99405 9.67534C2.9018 9.58292 2.79213 9.5097 2.6714 9.45993C2.55066 9.41016 2.42126 9.38482 2.29067 9.38538C2.16008 9.38594 2.0309 9.4124 1.9106 9.4632C1.7903 9.51401 1.68127 9.58817 1.58981 9.68139C1.49836 9.77461 1.42629 9.88504 1.37779 10.0063C1.32929 10.1275 1.30531 10.2572 1.30724 10.3878C1.30917 10.5183 1.33697 10.6472 1.38904 10.767C1.44111 10.8868 1.5164 10.995 1.61058 11.0855L4.60232 14.0208L2.56634 16.096C2.3871 16.2838 2.28902 16.5347 2.29331 16.7943C2.29759 17.0539 2.4039 17.3014 2.58923 17.4832C2.77456 17.665 3.02403 17.7666 3.28366 17.7659C3.5433 17.7653 3.79223 17.6624 3.97662 17.4796L6.01261 15.4045L9.00435 18.3398C9.1888 18.5213 9.43732 18.6229 9.69609 18.6225C9.89226 18.6225 10.084 18.5641 10.2468 18.4547C10.4097 18.3453 10.5363 18.1899 10.6105 18.0083C10.6847 17.8267 10.7031 17.6272 10.6635 17.435C10.6238 17.2429 10.5279 17.0669 10.3878 16.9296L7.39608 13.9944L8.83191 12.5306C9.86712 13.2658 11.1013 13.6639 12.3942 13.6639C14.0638 13.6639 15.6274 13.0077 16.7965 11.8159C17.95 10.6401 18.5766 9.08535 18.561 7.43827C18.5455 5.79106 17.8891 4.24869 16.7134 3.09509ZM15.3863 10.4323C14.5917 11.2423 13.5293 11.6882 12.3943 11.6882C11.29 11.6882 10.2476 11.2623 9.4593 10.4886C8.66004 9.7047 8.21412 8.65651 8.20367 7.53691C8.19295 6.41732 8.61869 5.3608 9.40286 4.56168C10.1975 3.75169 11.2599 3.30577 12.3949 3.30577C13.499 3.30577 14.5414 3.73179 15.3299 4.50537C16.1289 5.28926 16.5748 6.33759 16.5855 7.45704C16.5963 8.57664 16.1705 9.63315 15.3863 10.4323Z"
    fill="#E9446A" />
</svg>