<svg width="33" height="42" viewBox="0 0 33 42" fill="none" xmlns="http://www.w3.org/2000/svg">
  <path
    d="M32 11.3715V38.1128C32 40.1681 30.1689 42 28.1156 42H3.88444C1.83111 42 0 40.1681 0 38.1128V3.88723C0 1.83191 1.83111 0 3.88444 0H20.585C20.8084 0 21.0213 0.0882002 21.1794 0.2457L31.7534 10.7793C31.9115 10.9368 32 11.1489 32 11.3715Z"
    fill="#BCBCBC" />
  <path
    d="M16.1913 25.72C16.8413 25.72 17.3613 25.89 17.7613 26.25C18.1513 26.6 18.3513 27.08 18.3513 27.68C18.3513 28.17 18.2213 28.58 17.9813 28.9C17.8913 29.01 17.6113 29.27 17.1313 29.68C16.9513 29.84 16.8113 30.01 16.7213 30.19C16.6113 30.39 16.5613 30.61 16.5613 30.86V31.03H15.4913V30.86C15.4913 30.49 15.5513 30.17 15.6813 29.91C15.8213 29.63 16.2013 29.22 16.8213 28.67L16.9913 28.48C17.1713 28.25 17.2613 28.01 17.2613 27.75C17.2613 27.4 17.1613 27.13 16.9713 26.93C16.7713 26.73 16.4913 26.63 16.1313 26.63C15.6813 26.63 15.3513 26.77 15.1513 27.05C14.9713 27.29 14.8813 27.64 14.8813 28.08H13.8213C13.8213 27.35 14.0313 26.78 14.4613 26.36C14.8813 25.93 15.4613 25.72 16.1913 25.72ZM16.0213 31.57C16.2313 31.57 16.4113 31.63 16.5513 31.77C16.6913 31.9 16.7613 32.07 16.7613 32.28C16.7613 32.49 16.6913 32.66 16.5513 32.8C16.4013 32.93 16.2213 33 16.0213 33C15.8113 33 15.6413 32.93 15.5113 32.79C15.3613 32.65 15.2913 32.48 15.2913 32.28C15.2913 32.07 15.3613 31.9 15.5113 31.77C15.6413 31.63 15.8113 31.57 16.0213 31.57Z"
    fill="white" />
  <path
    d="M31.8523 11.1426H23.1358C22.0275 11.1426 21.1289 10.2522 21.1289 9.15389V0.293989C21.1289 0.184789 21.2603 0.130189 21.3387 0.207889L32.0049 10.7772C32.1405 10.9116 32.0452 11.1426 31.8523 11.1426Z"
    fill="white" fill-opacity="0.65" />
</svg>