<svg t="1735743549076" class="icon" viewBox="0 0 1024 1024" version="1.1" xmlns="http://www.w3.org/2000/svg"
  p-id="25801" width="32" height="42">
  <path
    d="M743.483311 0H109.01234A53.988777 53.988777 0 0 0 55.023562 53.988777v916.009591a53.988777 53.988777 0 0 0 53.988778 53.988778h805.97532a53.988777 53.988777 0 0 0 53.988778-53.988778V211.083265z m-10.913446 102.462987l149.201843 139.702389H732.569865zM137.292176 941.718532V82.268613h513.009076v242.165376h236.419427V941.718532z"
    p-id="25802" fill="#E9446A"></path>
  <path
    d="M298.60293 437.86184h-83.258408v237.332094h57.09956v-78.785051h27.752802c50.132436 0 93.837637-24.886256 93.837637-81.343092-0.051418-58.693514-43.113895-77.203952-95.431591-77.203951z m-1.285447 113.569249h-24.873401v-68.591456h23.292301c27.431441 0 42.741115 8.303988 42.741115 32.226158 0 23.279447-13.394359 36.365298-41.147161 36.365298zM502.757635 437.86184H434.487541v237.332094h71.458003c69.221325 0 117.065666-37.277965 117.065666-119.932212s-47.84434-117.399882-120.253575-117.399882z m-3.50927 191.40307h-7.712683V483.160995h7.712683c38.280614 0 65.390693 15.631037 65.390693 72.100727s-27.110079 74.003189-65.390693 74.003188zM667.024918 675.193934h57.099559v-90.585456h81.02173v-47.535833h-81.02173v-51.996334h94.428943v-47.201617H667.024918v237.31924z"
    p-id="25803" fill="#E9446A"></path>
</svg>