<svg width="32" height="42" viewBox="0 0 32 42" fill="none" xmlns="http://www.w3.org/2000/svg">
  <path
    d="M32 11.3715V38.1128C32 40.1681 30.1689 42 28.1156 42H3.88444C1.83111 42 0 40.1681 0 38.1128V3.88723C0 1.83191 1.83111 0 3.88444 0H20.585C20.8084 0 21.0213 0.0882002 21.1794 0.2457L31.7534 10.7793C31.9115 10.9368 32 11.1489 32 11.3715Z"
    fill="#FF7D3B" />
  <path
    d="M6.91504 0H9.91504V2.94118H6.91504V0ZM9.91504 2.94118H12.915V5.88235H9.91504V2.94118ZM6.91504 5.88235H9.91504V8.82353H6.91504V5.88235ZM9.91504 8.82353H12.915V11.7647H9.91504V8.82353ZM6.91504 11.7647H9.91504V14.7059H6.91504V11.7647ZM11.415 25H8.41504C7.59004 25 6.91504 24.3382 6.91504 23.5294V19.1176H12.915V23.5294C12.915 24.3382 12.315 25 11.415 25ZM9.91504 14.7059H12.915V17.6471H9.91504V14.7059Z"
    fill="white" />
  <path
    d="M31.6824 11.1426H22.9659C21.8575 11.1426 20.959 10.2522 20.959 9.15389V0.293989C20.959 0.184789 21.0904 0.130189 21.1688 0.207889L31.835 10.7772C31.9706 10.9116 31.8752 11.1426 31.6824 11.1426Z"
    fill="white" fill-opacity="0.65" />
</svg>