<svg width="33" height="42" viewBox="0 0 33 42" fill="none" xmlns="http://www.w3.org/2000/svg">
  <path
    d="M32.085 11.3715V38.1128C32.085 40.1681 30.2539 42 28.2005 42H3.96941C1.91607 42 0.0849609 40.1681 0.0849609 38.1128V3.88723C0.0849609 1.83191 1.91607 0 3.96941 0H20.6699C20.8934 0 21.1063 0.0882002 21.2644 0.2457L31.8383 10.7793C31.9964 10.9368 32.085 11.1489 32.085 11.3715Z"
    fill="#7C42FF" />
  <g clip-path="url(#clip0_280_6612)">
    <path
      d="M9.48496 14H22.685C24.005 14 25.085 15.08 25.085 16.4V29.6C25.085 30.92 24.005 32 22.685 32H9.48496C8.16496 32 7.08496 30.92 7.08496 29.6V16.4C7.08496 15.08 8.16496 14 9.48496 14ZM19.685 21.2C20.645 21.2 21.485 20.36 21.485 19.4C21.485 18.44 20.645 17.6 19.685 17.6C18.725 17.6 17.885 18.44 17.885 19.4C17.885 20.36 18.725 21.2 19.685 21.2ZM14.885 25.88L13.685 23.96C13.685 23.84 13.565 23.84 13.445 23.72C13.085 23.6 12.725 23.6 12.605 23.96L9.48496 28.76V29C9.48496 29.36 9.72496 29.6 10.085 29.6H22.325C22.565 29.6 22.805 29.36 22.805 29.12C22.805 29 22.805 28.88 22.685 28.88L20.045 25.16C19.925 24.92 19.565 24.92 19.325 25.04L19.205 25.16L18.965 25.4L17.285 28.04C17.045 28.28 16.685 28.4 16.445 28.16C16.325 28.16 16.325 28.04 16.325 27.92L14.885 25.88Z"
      fill="white" />
  </g>
  <path
    d="M31.8523 11.1426H23.1358C22.0275 11.1426 21.1289 10.2522 21.1289 9.15389V0.293989C21.1289 0.184789 21.2603 0.130189 21.3387 0.207889L32.0049 10.7772C32.1405 10.9116 32.0452 11.1426 31.8523 11.1426Z"
    fill="white" fill-opacity="0.65" />
  <defs>
    <clipPath id="clip0_280_6612">
      <rect width="18" height="18" fill="white" transform="translate(7.08496 14)" />
    </clipPath>
  </defs>
</svg>