<svg width="32" height="42" viewBox="0 0 32 42" fill="none" xmlns="http://www.w3.org/2000/svg">
  <path
    d="M32 11.3715V38.1128C32 40.1681 30.1689 42 28.1156 42H3.88444C1.83111 42 0 40.1681 0 38.1128V3.88723C0 1.83191 1.83111 0 3.88444 0H20.585C20.8084 0 21.0213 0.0882002 21.1794 0.2457L31.7534 10.7793C31.9115 10.9368 32 11.1489 32 11.3715Z"
    fill="#E34B45" />
  <path
    d="M31.7673 10.9712H23.0509C21.9425 10.9712 21.0439 10.0808 21.0439 8.9825V0.122602C21.0439 0.0134025 21.1753 -0.0411978 21.2538 0.0365022L31.9199 10.6058C32.0556 10.7402 31.9602 10.9712 31.7673 10.9712Z"
    fill="white" fill-opacity="0.65" />
  <path
    d="M6.94902 19.86H9.90902C11.609 19.86 12.459 20.58 12.459 22.03C12.459 23.49 11.599 24.22 9.88902 24.22H8.03902V27H6.94902V19.86ZM8.03902 20.79V23.29H9.81902C10.359 23.29 10.749 23.19 10.999 22.99C11.239 22.79 11.369 22.47 11.369 22.03C11.369 21.59 11.239 21.27 10.989 21.09C10.739 20.89 10.349 20.79 9.81902 20.79H8.03902ZM13.4725 19.86H16.0725C17.2225 19.86 18.0925 20.18 18.6925 20.83C19.2525 21.43 19.5325 22.3 19.5325 23.43C19.5325 24.55 19.2425 25.42 18.6725 26.04C18.0725 26.68 17.2025 27 16.0525 27H13.4725V19.86ZM14.5625 20.79V26.07H15.8525C16.7525 26.07 17.4225 25.85 17.8425 25.42C18.2525 24.99 18.4625 24.33 18.4625 23.43C18.4625 22.51 18.2525 21.85 17.8525 21.43C17.4325 21 16.7725 20.79 15.8725 20.79H14.5625ZM20.6404 19.86H25.4904V20.79H21.7304V22.87H25.2804V23.8H21.7304V27H20.6404V19.86Z"
    fill="white" />
</svg>