<svg width="32" height="42" viewBox="0 0 32 42" fill="none" xmlns="http://www.w3.org/2000/svg">
  <path
    d="M32 11.3715V38.1128C32 40.1681 30.1689 42 28.1156 42H3.88444C1.83111 42 0 40.1681 0 38.1128V3.88723C0 1.83191 1.83111 0 3.88444 0H20.585C20.8084 0 21.0213 0.0882002 21.1794 0.2457L31.7534 10.7793C31.9115 10.9368 32 11.1489 32 11.3715Z"
    fill="#3660B2" />
  <path
    d="M31.7673 10.9712H23.0509C21.9425 10.9712 21.0439 10.0808 21.0439 8.9825V0.122602C21.0439 0.0134025 21.1753 -0.0411978 21.2538 0.0365022L31.9199 10.6058C32.0556 10.7402 31.9602 10.9712 31.7673 10.9712Z"
    fill="white" fill-opacity="0.65" />
  <path
    d="M9.40887 19.72H10.4689V27H9.47887V26.38C9.11887 26.88 8.57887 27.14 7.87887 27.14C7.11887 27.14 6.51887 26.87 6.08887 26.33C5.68887 25.83 5.48887 25.18 5.48887 24.39C5.48887 23.63 5.67887 23 6.07887 22.5C6.49887 21.96 7.08887 21.69 7.82887 21.69C8.45887 21.69 8.98887 21.99 9.40887 22.6V19.72ZM8.06887 22.55C7.54887 22.55 7.15887 22.72 6.90887 23.08C6.68887 23.38 6.57887 23.82 6.57887 24.39C6.57887 24.96 6.67887 25.4 6.88887 25.72C7.12887 26.09 7.51887 26.28 8.03887 26.28C8.49887 26.28 8.84887 26.09 9.10887 25.73C9.32887 25.4 9.43887 24.98 9.43887 24.46V24.37C9.43887 23.81 9.29887 23.36 9.03887 23.02C8.77887 22.7 8.45887 22.55 8.06887 22.55ZM14.0454 21.69C14.8254 21.69 15.4554 21.95 15.9254 22.47C16.3854 22.98 16.6254 23.63 16.6254 24.42C16.6254 25.2 16.3954 25.85 15.9354 26.35C15.4554 26.87 14.8254 27.14 14.0454 27.14C13.2654 27.14 12.6354 26.87 12.1554 26.35C11.6954 25.85 11.4654 25.2 11.4654 24.42C11.4654 23.63 11.6954 22.98 12.1654 22.47C12.6354 21.95 13.2654 21.69 14.0454 21.69ZM14.0454 22.56C13.5554 22.56 13.1754 22.75 12.9054 23.14C12.6654 23.47 12.5554 23.9 12.5554 24.42C12.5554 24.94 12.6654 25.36 12.9054 25.69C13.1754 26.07 13.5554 26.27 14.0454 26.27C14.5354 26.27 14.9154 26.07 15.1954 25.69C15.4354 25.35 15.5554 24.93 15.5554 24.42C15.5554 23.9 15.4354 23.47 15.1954 23.14C14.9154 22.75 14.5354 22.56 14.0454 22.56ZM19.9322 21.69C20.5922 21.69 21.1222 21.84 21.5222 22.14C21.9222 22.46 22.1822 22.94 22.2822 23.58H21.2322C21.1622 23.23 21.0222 22.97 20.8022 22.81C20.5822 22.64 20.2922 22.56 19.9322 22.56C19.4922 22.56 19.1522 22.72 18.9022 23.05C18.6422 23.37 18.5222 23.83 18.5222 24.41C18.5222 24.99 18.6422 25.45 18.8922 25.78C19.1222 26.1 19.4622 26.27 19.9222 26.27C20.7122 26.27 21.1522 25.87 21.2522 25.09H22.3022C22.1822 25.78 21.9122 26.3 21.5122 26.64C21.1122 26.97 20.5722 27.14 19.9122 27.14C19.1222 27.14 18.5122 26.88 18.0722 26.36C17.6422 25.86 17.4322 25.22 17.4322 24.42C17.4322 23.64 17.6422 23 18.0622 22.5C18.5122 21.96 19.1322 21.69 19.9322 21.69ZM22.8884 21.83H24.1284L25.2684 23.47L26.3984 21.83H27.6384L25.8484 24.25L27.8584 27H26.6184L25.2684 25.03L23.9084 27H22.6584L24.6784 24.25L22.8884 21.83Z"
    fill="white" />
</svg>