<svg width="32" height="42" viewBox="0 0 32 42" fill="none" xmlns="http://www.w3.org/2000/svg">
  <path
    d="M32 11.3715V38.1128C32 40.1681 30.1689 42 28.1156 42H3.88444C1.83111 42 0 40.1681 0 38.1128V3.88723C0 1.83191 1.83111 0 3.88444 0H20.585C20.8084 0 21.0213 0.0882002 21.1794 0.2457L31.7534 10.7793C31.9115 10.9368 32 11.1489 32 11.3715Z"
    fill="#EF6444" />
  <path
    d="M31.7673 10.9712H23.0509C21.9425 10.9712 21.0439 10.0808 21.0439 8.9825V0.122602C21.0439 0.0134025 21.1753 -0.0411978 21.2538 0.0365022L31.9199 10.6058C32.0556 10.7402 31.9602 10.9712 31.7673 10.9712Z"
    fill="white" fill-opacity="0.65" />
  <path
    d="M12.4013 17.576H17.1373C19.8573 17.576 21.2173 18.728 21.2173 21.048C21.2173 23.384 19.8413 24.552 17.1053 24.552H14.1453V29H12.4013V17.576ZM14.1453 19.064V23.064H16.9933C17.8573 23.064 18.4813 22.904 18.8813 22.584C19.2653 22.264 19.4733 21.752 19.4733 21.048C19.4733 20.344 19.2653 19.832 18.8653 19.544C18.4653 19.224 17.8413 19.064 16.9933 19.064H14.1453Z"
    fill="white" />
</svg>