<svg t="1735744838025" class="icon" viewBox="0 0 1024 1024" version="1.1" xmlns="http://www.w3.org/2000/svg"
  p-id="30218" width="42" height="42">
  <path
    d="M896 346.8c-0.1 0 0 0 0 0 0-0.9-0.1-1.7-0.2-2.5 0-0.1 0-0.3-0.1-0.4-0.2-1.7-0.5-3.3-1-4.9-0.5-1.7-1-3.3-1.7-4.9v-0.1c-0.3-0.8-0.7-1.5-1.1-2.3v-0.1c-0.4-0.7-0.8-1.5-1.2-2.2-0.1-0.1-0.1-0.2-0.2-0.3-0.4-0.6-0.8-1.2-1.3-1.9-0.1-0.1-0.1-0.2-0.2-0.2-0.5-0.6-1-1.3-1.5-1.9-0.1-0.1-0.2-0.3-0.4-0.4-0.5-0.6-1-1.2-1.6-1.7l-0.1-0.1L637.3 74.5c-0.6-0.6-1.2-1.1-1.8-1.6-0.1-0.1-0.3-0.2-0.4-0.4-0.6-0.5-1.2-1-1.9-1.5-0.1 0-0.1-0.1-0.2-0.1-0.6-0.5-1.3-0.9-1.9-1.3-0.1-0.1-0.2-0.1-0.3-0.2-0.7-0.4-1.4-0.9-2.2-1.3-0.8-0.4-1.5-0.8-2.3-1.1h-0.1c-1.6-0.7-3.2-1.3-4.9-1.7-1.6-0.4-3.2-0.8-4.9-1-0.1 0-0.3 0-0.4-0.1-1.4-0.2-2.8-0.3-4.3-0.3H164c-19.9 0-36 16.1-36 36v823.3c0 19.9 16.1 36 36 36h696c19.9 0 36-16.1 36-36V348.6v-1.8zM647.8 186.9l125.4 125.6H647.8V186.9zM200 887.2V135.9h375.8v212.7c0 19.9 16.1 36 36 36H824v502.7H200z"
    fill="#BCBCBC" p-id="30219"></path>
  <path
    d="M419.2 543.1v-29.2H283v31.5h86.7L272 666.1V700h151.2v-31.3H317.3zM492.6 513.9h37.6V700h-37.6zM717.7 516.7c-6.9-1.9-21.8-2.8-44.7-2.8h-60.3V700h37.6v-70.2h24.5c17 0 30-0.9 39-2.7 6.6-1.4 13.1-4.4 19.5-8.8s11.7-10.6 15.8-18.3c4.1-7.8 6.2-17.4 6.2-28.8 0-14.8-3.6-26.9-10.8-36.2-7.2-9.4-16.1-15.5-26.8-18.3z m-5.4 69.4c-2.8 4.1-6.8 7.2-11.7 9.1-5 1.9-14.9 2.9-29.7 2.9h-20.6v-52.8h18.2c13.5 0 22.6 0.4 27 1.3 6.1 1.1 11.1 3.9 15.1 8.3s6 10 6 16.8c0 5.5-1.4 10.3-4.3 14.4z"
    fill="#BCBCBC" p-id="30220"></path>
</svg>