<svg width="32" height="42" viewBox="0 0 32 42" fill="none" xmlns="http://www.w3.org/2000/svg">
  <path
    d="M32 11.3715V38.1128C32 40.1681 30.1689 42 28.1156 42H3.88444C1.83111 42 0 40.1681 0 38.1128V3.88723C0 1.83191 1.83111 0 3.88444 0H20.585C20.8084 0 21.0213 0.0882002 21.1794 0.2457L31.7534 10.7793C31.9115 10.9368 32 11.1489 32 11.3715Z"
    fill="#3E93FF" />
  <path
    d="M22.2192 15.186L14.7492 17.2661C13.8436 17.5012 13.1101 18.3596 13.1101 19.1842V26.355C13.1101 26.355 12.569 26.0231 11.363 26.1783C9.59224 26.4078 8.15674 27.6442 8.15674 28.9413C8.15674 30.2385 9.59224 31.0327 11.363 30.8043C13.1349 30.5771 14.4331 29.3778 14.4331 28.0796V21.9573C14.4331 21.3825 15.1936 21.1361 15.1936 21.1361L21.7996 19.2517C21.7996 19.2517 22.5297 19.029 22.5297 19.6443V24.5628C22.5297 24.5628 21.8559 24.2107 20.651 24.3446C18.8802 24.5392 17.4436 25.7497 17.4436 27.0468C17.4436 28.344 18.8791 29.1652 20.651 28.9695C22.4229 28.7737 23.8584 27.5643 23.8584 26.2661V16.2525C23.8572 15.429 23.1237 14.952 22.2192 15.186Z"
    fill="white" />
  <path
    d="M31.7673 11.1426H23.0509C21.9425 11.1426 21.0439 10.2522 21.0439 9.15389V0.293989C21.0439 0.184789 21.1753 0.130189 21.2538 0.207889L31.9199 10.7772C32.0556 10.9116 31.9602 11.1426 31.7673 11.1426Z"
    fill="white" fill-opacity="0.65" />
</svg>