<svg width="32" height="42" viewBox="0 0 32 42" fill="none" xmlns="http://www.w3.org/2000/svg">
  <path
    d="M32 11.3715V38.1128C32 40.1681 30.1689 42 28.1156 42H3.88444C1.83111 42 0 40.1681 0 38.1128V3.88723C0 1.83191 1.83111 0 3.88444 0H20.585C20.8084 0 21.0213 0.0882002 21.1794 0.2457L31.7534 10.7793C31.9115 10.9368 32 11.1489 32 11.3715Z"
    fill="#20C6AD" />
  <path
    d="M31.6824 11.1426H22.9659C21.8575 11.1426 20.959 10.2522 20.959 9.15389V0.293989C20.959 0.184789 21.0904 0.130189 21.1688 0.207889L31.835 10.7772C31.9706 10.9116 31.8752 11.1426 31.6824 11.1426Z"
    fill="white" fill-opacity="0.65" />
  <path
    d="M11.5864 17.576H13.7144L16.4984 21.704L19.2824 17.576H21.4104L17.5384 23.096L21.6824 29H19.5544L16.4984 24.472L13.4424 29H11.3144L15.4264 23.096L11.5864 17.576Z"
    fill="white" />
</svg>