<svg width="32" height="42" viewBox="0 0 32 42" fill="none" xmlns="http://www.w3.org/2000/svg">
  <path
    d="M32 11.3715V38.1128C32 40.1681 30.1689 42 28.1156 42H3.88444C1.83111 42 0 40.1681 0 38.1128V3.88723C0 1.83191 1.83111 0 3.88444 0H20.585C20.8084 0 21.0213 0.0882002 21.1794 0.2457L31.7534 10.7793C31.9115 10.9368 32 11.1489 32 11.3715Z"
    fill="#FFCB3F" />
  <path
    d="M31.7673 11.1426H23.0509C21.9425 11.1426 21.0439 10.2522 21.0439 9.15389V0.293989C21.0439 0.184789 21.1753 0.130189 21.2538 0.207889L31.9199 10.7772C32.0556 10.9116 31.9602 11.1426 31.7673 11.1426Z"
    fill="white" fill-opacity="0.65" />
  <path d="M4 15H15" stroke="white" stroke-width="1.5" stroke-linecap="round" />
  <path d="M4 22H20" stroke="white" stroke-width="1.5" stroke-linecap="round" />
  <path d="M4 29H24" stroke="white" stroke-width="1.5" stroke-linecap="round" />
</svg>