<svg width="32" height="42" viewBox="0 0 32 42" fill="none" xmlns="http://www.w3.org/2000/svg">
  <path
    d="M32 11.3715V38.1128C32 40.1681 30.1689 42 28.1156 42H3.88444C1.83111 42 0 40.1681 0 38.1128V3.88723C0 1.83191 1.83111 0 3.88444 0H20.585C20.8084 0 21.0213 0.0882002 21.1794 0.2457L31.7534 10.7793C31.9115 10.9368 32 11.1489 32 11.3715Z"
    fill="#E9446A" />
  <path
    d="M31.7673 11.1426H23.0509C21.9425 11.1426 21.0439 10.2522 21.0439 9.15389V0.293989C21.0439 0.184789 21.1753 0.130189 21.2538 0.207889L31.9199 10.7772C32.0556 10.9116 31.9602 11.1426 31.7673 11.1426Z"
    fill="white" fill-opacity="0.65" />
  <path
    d="M19.7187 20.8272C19.7187 20.8834 19.6591 20.9816 19.5408 21.1221C19.4216 21.2626 19.294 21.4281 19.1581 21.6191C19.0221 21.81 18.8954 22.0177 18.7762 22.2423C18.6571 22.4668 18.5983 22.697 18.5983 22.9329C18.5983 23.1689 18.6571 23.3962 18.7762 23.6151C18.8954 23.8343 19.0221 24.0335 19.1581 24.2131C19.294 24.3929 19.4216 24.5417 19.5408 24.6597C19.6591 24.7773 19.7187 24.8533 19.7187 24.887V26.6557C19.7187 26.8466 19.6482 27.0628 19.5063 27.3043C19.3653 27.5457 19.1899 27.773 18.9801 27.9865C18.7712 28.1996 18.5387 28.377 18.2836 28.5169C18.0293 28.6575 17.7884 28.7275 17.5618 28.7275H9.12243C8.81695 28.7275 8.53665 28.6742 8.28236 28.5676C8.02722 28.4611 7.804 28.3121 7.61097 28.1214C7.41878 27.9304 7.26856 27.706 7.16113 27.4475C7.05371 27.1892 7 26.9084 7 26.6054V19.3449C7 19.1203 7.05121 18.8872 7.15273 18.6458C7.25512 18.4044 7.39863 18.1827 7.58579 17.9804C7.77294 17.7783 7.99366 17.6099 8.24794 17.475C8.50308 17.3404 8.78255 17.2729 9.08887 17.2729H17.5283C17.8337 17.2729 18.1199 17.3262 18.386 17.433C18.652 17.5396 18.8836 17.6857 19.0817 17.8709C19.2798 18.0564 19.4359 18.278 19.5492 18.5363C19.6625 18.7946 19.7187 19.0698 19.7187 19.3618V20.8272H19.7187ZM25 19.2438V26.9421C25 27.1892 24.9345 27.4081 24.8045 27.599C24.6744 27.79 24.4788 27.8854 24.2187 27.8854C24.128 27.8854 24.0122 27.8517 23.8704 27.7842C23.7243 27.7144 23.5828 27.6357 23.4466 27.5484C23.3048 27.4587 23.1713 27.3688 23.0471 27.2789C22.9229 27.1892 22.8323 27.1161 22.7752 27.0602C22.6283 26.9365 22.4042 26.723 22.1046 26.4199C21.8042 26.1167 21.5021 25.7741 21.1957 25.3924C20.8902 25.0105 20.6217 24.6175 20.3892 24.2131C20.1576 23.8089 20.0418 23.4382 20.0418 23.1013C20.0418 22.7645 20.166 22.3799 20.4152 21.9476C20.6645 21.5153 20.9641 21.0914 21.3149 20.6757C21.6657 20.2601 22.0342 19.8754 22.4185 19.5218C22.8037 19.168 23.126 18.9012 23.387 18.7218C23.4885 18.6543 23.627 18.573 23.8024 18.4774C23.9778 18.3819 24.1339 18.3342 24.2699 18.3342C24.5753 18.3342 24.7734 18.4185 24.864 18.5869C24.9547 18.7553 25 18.9632 25 19.21V19.2438Z"
    fill="white" />
</svg>