<svg width="20" height="20" viewBox="0 0 20 20" fill="none" xmlns="http://www.w3.org/2000/svg">
  <path
    d="M7.91677 11.3894H10.0001M10.0001 11.3894H12.0834M10.0001 11.3894V9.30604M10.0001 11.3894V13.4727M16.9446 14.8616C16.9446 15.23 16.7982 15.5832 16.5378 15.8437C16.2773 16.1042 15.924 16.2505 15.5557 16.2505H4.44455C4.0762 16.2505 3.72293 16.1042 3.46246 15.8437C3.20199 15.5832 3.05566 15.23 3.05566 14.8616V5.13938C3.05566 4.77102 3.20199 4.41775 3.46246 4.15728C3.72293 3.89682 4.0762 3.75049 4.44455 3.75049H7.91677L9.30566 5.83382H15.5557C15.924 5.83382 16.2773 5.98015 16.5378 6.24062C16.7982 6.50108 16.9446 6.85435 16.9446 7.22271V14.8616Z"
    stroke="#666666" stroke-width="1.5" stroke-linecap="round" stroke-linejoin="round" />
</svg>