<svg width="32" height="42" viewBox="0 0 32 42" fill="none" xmlns="http://www.w3.org/2000/svg">
  <path
    d="M32 11.3715V38.1128C32 40.1681 30.1689 42 28.1156 42H3.88444C1.83111 42 0 40.1681 0 38.1128V3.88723C0 1.83191 1.83111 0 3.88444 0H20.585C20.8084 0 21.0213 0.0882002 21.1794 0.2457L31.7534 10.7793C31.9115 10.9368 32 11.1489 32 11.3715Z"
    fill="#3660B2" />
  <path
    d="M31.7673 10.9712H23.0509C21.9425 10.9712 21.0439 10.0808 21.0439 8.9825V0.122602C21.0439 0.0134025 21.1753 -0.0411978 21.2538 0.0365022L31.9199 10.6058C32.0556 10.7402 31.9602 10.9712 31.7673 10.9712Z"
    fill="white" fill-opacity="0.65" />
  <path
    d="M11.5602 19.72H12.6202V27H11.6302V26.38C11.2702 26.88 10.7302 27.14 10.0302 27.14C9.27023 27.14 8.67023 26.87 8.24023 26.33C7.84023 25.83 7.64023 25.18 7.64023 24.39C7.64023 23.63 7.83023 23 8.23023 22.5C8.65023 21.96 9.24023 21.69 9.98023 21.69C10.6102 21.69 11.1402 21.99 11.5602 22.6V19.72ZM10.2202 22.55C9.70023 22.55 9.31023 22.72 9.06023 23.08C8.84023 23.38 8.73023 23.82 8.73023 24.39C8.73023 24.96 8.83023 25.4 9.04023 25.72C9.28023 26.09 9.67023 26.28 10.1902 26.28C10.6502 26.28 11.0002 26.09 11.2602 25.73C11.4802 25.4 11.5902 24.98 11.5902 24.46V24.37C11.5902 23.81 11.4502 23.36 11.1902 23.02C10.9302 22.7 10.6102 22.55 10.2202 22.55ZM16.1968 21.69C16.9768 21.69 17.6068 21.95 18.0768 22.47C18.5368 22.98 18.7768 23.63 18.7768 24.42C18.7768 25.2 18.5468 25.85 18.0868 26.35C17.6068 26.87 16.9768 27.14 16.1968 27.14C15.4168 27.14 14.7868 26.87 14.3068 26.35C13.8468 25.85 13.6168 25.2 13.6168 24.42C13.6168 23.63 13.8468 22.98 14.3168 22.47C14.7868 21.95 15.4168 21.69 16.1968 21.69ZM16.1968 22.56C15.7068 22.56 15.3268 22.75 15.0568 23.14C14.8168 23.47 14.7068 23.9 14.7068 24.42C14.7068 24.94 14.8168 25.36 15.0568 25.69C15.3268 26.07 15.7068 26.27 16.1968 26.27C16.6868 26.27 17.0668 26.07 17.3468 25.69C17.5868 25.35 17.7068 24.93 17.7068 24.42C17.7068 23.9 17.5868 23.47 17.3468 23.14C17.0668 22.75 16.6868 22.56 16.1968 22.56ZM22.0836 21.69C22.7436 21.69 23.2736 21.84 23.6736 22.14C24.0736 22.46 24.3336 22.94 24.4336 23.58H23.3836C23.3136 23.23 23.1736 22.97 22.9536 22.81C22.7336 22.64 22.4436 22.56 22.0836 22.56C21.6436 22.56 21.3036 22.72 21.0536 23.05C20.7936 23.37 20.6736 23.83 20.6736 24.41C20.6736 24.99 20.7936 25.45 21.0436 25.78C21.2736 26.1 21.6136 26.27 22.0736 26.27C22.8636 26.27 23.3036 25.87 23.4036 25.09H24.4536C24.3336 25.78 24.0636 26.3 23.6636 26.64C23.2636 26.97 22.7236 27.14 22.0636 27.14C21.2736 27.14 20.6636 26.88 20.2236 26.36C19.7936 25.86 19.5836 25.22 19.5836 24.42C19.5836 23.64 19.7936 23 20.2136 22.5C20.6636 21.96 21.2836 21.69 22.0836 21.69Z"
    fill="white" />
</svg>