<svg width="12" height="12" viewBox="0 0 12 12" fill="none" xmlns="http://www.w3.org/2000/svg">
  <rect x="1" y="1" width="8" height="8" fill="white" />
  <path fill-rule="evenodd" clip-rule="evenodd"
    d="M8.72138 0.172685C9.56052 0.12024 10.388 0.411605 11.0115 0.982681C11.5826 1.6062 11.874 2.43368 11.8274 3.27864V8.72134C11.8798 9.5663 11.5826 10.3938 11.0174 11.0173C10.3938 11.5884 9.56052 11.8797 8.72138 11.8273H3.27863C2.43367 11.8797 1.60618 11.5884 0.982657 11.0173C0.411576 10.3938 0.120209 9.5663 0.172655 8.72134V3.27864C0.120209 2.43368 0.411576 1.6062 0.982657 0.982681C1.60618 0.411605 2.43367 0.12024 3.27863 0.172685H8.72138ZM5.40562 8.82623L9.32742 4.8928C9.68289 4.53151 9.68289 3.94878 9.32742 3.59331L8.56987 2.83576C8.20857 2.47447 7.62584 2.47447 7.26454 2.83576L6.87411 3.23202C6.81583 3.29029 6.81583 3.38936 6.87411 3.44763C6.87411 3.44763 7.80066 4.36834 7.81814 4.39165C7.88224 4.46158 7.92303 4.55482 7.92303 4.65971C7.92303 4.86949 7.75404 5.04431 7.53843 5.04431C7.43936 5.04431 7.34612 5.00352 7.28202 4.93942L6.30886 3.97209C6.26224 3.92547 6.18065 3.92547 6.13403 3.97209L3.35439 6.75171C3.16209 6.94401 3.05137 7.20041 3.04554 7.4743L3.01058 8.85537C3.01058 8.93112 3.03388 9.00105 3.08633 9.0535C3.13878 9.10594 3.2087 9.13508 3.28446 9.13508H4.65389C4.9336 9.13508 5.20166 9.02436 5.40562 8.82623Z"
    fill="#7C42FF" />
</svg>