<svg width="20" height="20" viewBox="0 0 20 20" fill="none" xmlns="http://www.w3.org/2000/svg">
  <path
    d="M18.0146 2.97262V2.97164C18.0146 2.95668 18.0129 2.942 18.012 2.92704C18.0113 2.91378 18.0112 2.90037 18.0099 2.88725C18.0082 2.87173 18.0054 2.85691 18.0029 2.84167C18.0015 2.83278 18.0005 2.82375 17.9988 2.81472L17.9979 2.80893L17.9969 2.80343C17.9938 2.78791 17.9892 2.77309 17.9852 2.75785C17.9821 2.746 17.9796 2.73386 17.9761 2.72229C17.971 2.70634 17.9646 2.69068 17.9587 2.67502L17.9533 2.6602L17.9501 2.65131L17.9476 2.64496C17.9406 2.62873 17.9327 2.61321 17.9248 2.59754C17.9205 2.58865 17.9166 2.57962 17.9118 2.57102C17.9034 2.55535 17.8938 2.54068 17.8845 2.52572C17.8817 2.52134 17.8793 2.51669 17.8764 2.51259C17.8747 2.51005 17.8735 2.50737 17.8718 2.50483L17.8695 2.50145C17.8596 2.48677 17.8488 2.47322 17.838 2.45939C17.8321 2.45177 17.8268 2.44373 17.8207 2.43625C17.8098 2.42327 17.798 2.41099 17.7864 2.39857C17.7795 2.3911 17.7731 2.38333 17.7661 2.37628L17.7648 2.37501L17.7645 2.37459L17.7631 2.37346C17.7528 2.36316 17.7417 2.35384 17.7305 2.34396C17.7222 2.33663 17.7144 2.32872 17.7057 2.32153C17.694 2.31193 17.6813 2.30332 17.669 2.29415C17.6595 2.2871 17.6504 2.27962 17.6406 2.27298C17.6384 2.27175 17.6363 2.27043 17.6341 2.26903L17.6237 2.26296C17.6164 2.25826 17.6089 2.25375 17.6014 2.24942C17.5912 2.24321 17.5814 2.23658 17.5708 2.23079C17.5575 2.22359 17.5435 2.21767 17.5299 2.21118C17.5188 2.20595 17.5081 2.20003 17.4968 2.19537C17.4939 2.19396 17.4905 2.19297 17.4872 2.19184C17.4836 2.19029 17.4796 2.18916 17.476 2.18747L17.4561 2.18027C17.4438 2.1759 17.4318 2.17082 17.4191 2.16673C17.4065 2.16306 17.3935 2.16038 17.3807 2.15713C17.3664 2.15332 17.3525 2.14895 17.3379 2.14612C17.335 2.14542 17.3319 2.14542 17.3289 2.14485L17.3206 2.14344C17.3103 2.14147 17.2997 2.1402 17.289 2.13878C17.2773 2.13695 17.2658 2.13455 17.2541 2.13328C17.2254 2.13033 17.1965 2.12887 17.1676 2.12891H17.1647L10.4639 2.15304C10.2393 2.15343 10.0241 2.24301 9.86563 2.40207C9.70712 2.56113 9.61829 2.77665 9.61869 3.0012C9.61908 3.22575 9.70866 3.44095 9.86772 3.59946C10.0268 3.75796 10.2423 3.84679 10.4668 3.8464H10.4698L15.1264 3.82946L12.0647 6.91336C11.0156 6.08954 9.69806 5.59564 8.27268 5.59564L8.19027 5.59606C4.79 5.6408 2.0603 8.44345 2.10503 11.8433C2.1492 15.1991 4.9146 17.9291 8.26971 17.9291L8.35212 17.9285C9.9992 17.9069 11.5393 17.2453 12.6887 16.0653C13.8382 14.8853 14.4591 13.3282 14.4374 11.6814C14.4201 10.3567 13.9773 9.13039 13.2428 8.13004L16.3212 5.02949V9.67593C16.3212 9.90049 16.4104 10.1158 16.5692 10.2746C16.728 10.4334 16.9433 10.5226 17.1679 10.5226C17.3925 10.5226 17.6078 10.4334 17.7666 10.2746C17.9254 10.1158 18.0146 9.90049 18.0146 9.67593V2.97531V2.97432V2.97262ZM11.2735 14.6869C10.4924 15.489 9.44561 15.9385 8.32616 15.9534L8.26971 15.9536C5.98974 15.9536 4.1104 14.0981 4.08034 11.8175C4.05 9.5066 5.90536 7.60199 8.21623 7.57151L8.27268 7.57137C10.5528 7.57137 12.4323 9.42673 12.4619 11.7077C12.4767 12.8269 12.0547 13.8849 11.2735 14.6869Z"
    fill="#3E93FF" />
</svg>