<svg width="24" height="24" viewBox="0 0 24 24" fill="none" xmlns="http://www.w3.org/2000/svg">
  <path
    d="M11.0683 2.24706C11.3516 2.08521 11.6729 2 12 2C12.3271 2 12.6484 2.08521 12.9317 2.24706L20.0683 6.32527C20.3516 6.48712 20.5868 6.71991 20.7503 7.00023C20.9139 7.28056 21 7.59856 21 7.92225V16.0777C21 16.4014 20.9139 16.7194 20.7503 16.9998C20.5868 17.2801 20.3516 17.5129 20.0683 17.6747L12.9317 21.7529C12.6484 21.9148 12.3271 22 12 22C11.6729 22 11.3516 21.9148 11.0683 21.7529L3.93168 17.6747C3.64842 17.5129 3.4132 17.2801 3.24965 16.9998C3.08611 16.7194 3.00001 16.4014 3 16.0777V7.92225C3.00001 7.59856 3.08611 7.28056 3.24965 7.00023C3.4132 6.71991 3.64842 6.48712 3.93168 6.32527L11.0683 2.24706ZM12 3.84404L4.86335 7.92225V16.0777L12 20.156L19.1366 16.0777V7.92225L12 3.84404ZM12 8.31182C12.9884 8.31182 13.9363 8.70039 14.6352 9.39206C15.3341 10.0837 15.7267 11.0218 15.7267 12C15.7267 12.9782 15.3341 13.9163 14.6352 14.6079C13.9363 15.2996 12.9884 15.6882 12 15.6882C11.0116 15.6882 10.0637 15.2996 9.36482 14.6079C8.66593 13.9163 8.27329 12.9782 8.27329 12C8.27329 11.0218 8.66593 10.0837 9.36482 9.39206C10.0637 8.70039 11.0116 8.31182 12 8.31182ZM12 10.1559C11.7553 10.1559 11.513 10.2036 11.2869 10.2963C11.0609 10.389 10.8554 10.5248 10.6824 10.696C10.5094 10.8673 10.3721 11.0706 10.2785 11.2943C10.1848 11.518 10.1366 11.7578 10.1366 12C10.1366 12.2422 10.1848 12.482 10.2785 12.7057C10.3721 12.9294 10.5094 13.1327 10.6824 13.304C10.8554 13.4752 11.0609 13.611 11.2869 13.7037C11.513 13.7964 11.7553 13.8441 12 13.8441C12.4942 13.8441 12.9681 13.6498 13.3176 13.304C13.667 12.9581 13.8634 12.4891 13.8634 12C13.8634 11.5109 13.667 11.0419 13.3176 10.696C12.9681 10.3502 12.4942 10.1559 12 10.1559Z"
    fill="#333333" />
</svg>