<svg viewBox="0 0 1024 1024" version="1.1" xmlns="http://www.w3.org/2000/svg" p-id="4320" width="24" height="24">
  <path
    d="M843.98 137.387c11.558 0 21.573 4.266 30.004 12.656 8.472 8.397 12.684 18.494 12.684 30.01 0 11.81-4.212 21.9-12.684 30.297l-60.307 60.3c-8.192 8.247-18.186 12.37-29.996 12.37-12.254 0-22.371-4.123-30.502-12.083-8.123-8.11-12.151-18.35-12.151-30.584 0-11.803 4.082-21.756 12.308-30.003l60.3-60.307c8.479-8.39 18.569-12.656 30.352-12.656z m52.006 331.946h85.334c11.776 0 21.845 4.124 30.153 12.514C1019.85 490.243 1024 500.197 1024 512c0 11.81-4.15 21.9-12.527 30.153-8.308 8.39-18.377 12.514-30.153 12.514h-85.334c-11.776 0-21.818-4.124-30.194-12.514-8.308-8.253-12.506-18.35-12.506-30.153 0-11.81 4.198-21.763 12.506-30.153 8.376-8.39 18.418-12.514 30.194-12.514zM512 0c11.776 0 21.804 4.267 30.174 12.513 8.315 8.397 12.506 18.494 12.506 30.154V128c0 11.81-4.191 21.9-12.5 30.153-8.376 8.39-18.404 12.657-30.18 12.657-11.79 0-21.818-4.267-30.194-12.657-8.308-8.253-12.5-18.35-12.5-30.153V42.667c0-11.66 4.192-21.764 12.5-30.154C490.189 4.267 500.217 0 512.006 0zM180.34 137.387c11.55 0 21.559 4.266 30.024 12.656l60.3 60.307c8.478 8.39 12.663 18.487 12.663 30.003 0 11.81-4.157 21.907-12.506 30.154-8.329 8.396-18.37 12.513-30.174 12.513-12.008 0-22.132-4.123-30.31-12.227l-60.321-60.306c-8.247-8.247-12.329-18.344-12.329-30.434 0-11.81 4.15-21.763 12.527-30.153 8.308-8.247 18.377-12.513 30.18-12.513h-0.054z m603.34 603.306c11.552 0 21.553 4.124 29.997 12.657l60.307 60.307c8.472 8.533 12.684 18.486 12.684 30.29 0 11.523-4.212 21.62-12.684 30.01-8.438 8.533-18.446 12.656-29.996 12.656-11.776 0-21.873-4.123-30.352-12.656l-60.3-60.3c-8.226-8.11-12.308-18.207-12.308-30.01 0-11.81 4.157-21.907 12.506-30.297 8.329-8.39 18.405-12.657 30.174-12.657h-0.027z m-271.673-399.36c-47.118 0-87.3 16.644-120.675 50.06-33.328 33.28-50.005 73.53-50.005 120.607s16.677 87.327 50.005 120.75c33.382 33.266 73.557 49.917 120.668 49.917 47.118 0 87.313-16.644 120.695-49.924 33.294-33.41 49.972-73.66 49.972-120.743 0-47.077-16.678-87.327-49.972-120.607-33.382-33.416-73.577-50.06-120.695-50.06z m-469.327 128h85.334c11.79 0 21.818 4.124 30.194 12.514 8.308 8.396 12.506 18.35 12.506 30.153 0 11.81-4.198 21.9-12.506 30.153-8.376 8.39-18.405 12.514-30.194 12.514H42.68c-11.776 0-21.831-4.124-30.153-12.514C4.15 533.9 0 523.803 0 512c0-11.81 4.15-21.763 12.527-30.153 8.328-8.39 18.377-12.514 30.153-12.514z m469.327 384c11.776 0 21.804 4.124 30.174 12.514 8.315 8.396 12.506 18.35 12.506 30.153v85.333c0 11.81-4.191 21.9-12.5 30.154-8.376 8.39-18.404 12.513-30.187 12.513-11.79 0-21.818-4.123-30.194-12.513-8.308-8.254-12.5-18.35-12.5-30.154V896c0-11.81 4.192-21.763 12.5-30.153 8.376-8.39 18.404-12.514 30.194-12.514zM240.7 740.693c11.742 0 21.818 4.124 30.167 12.657 8.329 8.397 12.527 18.493 12.527 30.297 0 11.66-4.253 21.613-12.697 30.003l-60.307 60.307c-8.43 8.533-18.432 12.656-29.996 12.656-11.804 0-21.873-4.123-30.174-12.376-8.383-8.39-12.534-18.487-12.534-30.29 0-11.947 4.082-22.05 12.329-30.297l60.32-60.3c8.431-8.533 18.562-12.657 30.31-12.657h0.055zM512 256c46.435 0 89.272 11.523 128.485 34.27 39.253 23.047 70.314 54.047 93.156 93.3 22.883 39.117 34.339 81.92 34.339 128.43 0 46.51-11.428 89.313-34.339 128.567-22.896 39.116-53.971 70.116-93.156 93.156C601.32 756.62 558.496 768 512 768c-46.49 0-89.3-11.38-128.498-34.27-39.185-23.047-70.233-54.053-93.157-93.163-22.897-39.254-34.338-82.057-34.338-128.567 0-46.51 11.482-89.313 34.338-128.43 22.856-39.253 53.903-70.253 93.157-93.293C422.735 267.517 465.565 256 512 256z"
    p-id="4321" fill="#333333"></path>
</svg>