<svg width="24" height="24" viewBox="0 0 24 24" fill="none" xmlns="http://www.w3.org/2000/svg">
  <path
    d="M9.39541 3.06212C10.403 2.74051 11.1467 3.73173 10.8816 4.56214C10.5017 5.75245 10.4568 7.02434 10.7516 8.23851C11.0465 9.45267 11.6698 10.5623 12.5533 11.4458C13.4368 12.3293 14.5465 12.9526 15.7606 13.2475C16.9748 13.5423 18.2467 13.4974 19.437 13.1175C20.2674 12.8537 21.2587 13.5961 20.9383 14.6037C20.4597 16.1053 19.6028 17.4585 18.4499 18.5332C17.2971 19.6078 15.8872 20.3678 14.3558 20.7401C12.8243 21.1123 11.2228 21.0843 9.70534 20.6587C8.18785 20.2331 6.80539 19.4242 5.69089 18.3098C4.5764 17.1955 3.76736 15.8131 3.34158 14.2957C2.91579 12.7782 2.88759 11.1768 3.25967 9.6453C3.63175 8.11381 4.39161 6.70382 5.46617 5.5509C6.54073 4.39798 7.89385 3.54091 9.39541 3.06212ZM8.69313 5.47044C7.70993 6.01237 6.86622 6.77552 6.22868 7.69959C5.59113 8.62366 5.17722 9.68334 5.01965 10.7949C4.86207 11.9064 4.96515 13.0394 5.32075 14.1043C5.67634 15.1691 6.2747 16.1367 7.06854 16.9305C7.86239 17.7244 8.82997 18.3227 9.89484 18.6783C10.9597 19.0339 12.0927 19.137 13.2042 18.9794C14.3158 18.8218 15.3755 18.4079 16.2996 17.7704C17.2236 17.1329 17.9868 16.2892 18.5287 15.306C17.1951 15.484 15.8383 15.3523 14.5639 14.921C13.2894 14.4897 12.1315 13.7704 11.1801 12.819C10.2287 11.8676 9.50939 10.7097 9.07808 9.43528C8.64677 8.16081 8.51504 6.80407 8.69313 5.47044Z"
    fill="#333333" />
</svg>