<svg width="20" height="20" viewBox="0 0 20 20" fill="none" xmlns="http://www.w3.org/2000/svg">
  <circle cx="10" cy="10" r="10" fill="#7C42FF" />
  <path
    d="M15.3822 6.95591C15.0717 6.64548 14.7059 6.50546 14.2837 6.50546H12.9302L12.6197 5.68812C12.5351 5.49058 12.394 5.32125 12.1975 5.18124C12 5.04013 11.7753 4.95547 11.5777 4.95547H8.47773C8.25196 4.95547 8.0555 5.04013 7.85796 5.18124C7.66041 5.32234 7.51931 5.49167 7.43573 5.68812L7.09707 6.50546H5.7164C5.29416 6.50546 4.9273 6.64656 4.61795 6.95591C4.3075 7.26634 4.16748 7.63214 4.16748 8.05546V13.4945C4.16748 13.9168 4.30859 14.2837 4.61794 14.5941C4.92837 14.9045 5.29416 15.0445 5.71639 15.0445H14.2826C14.7048 15.0445 15.0717 14.9034 15.3811 14.5941C15.6915 14.2837 15.8315 13.9179 15.8315 13.4945V8.05546C15.8326 7.63214 15.6926 7.26634 15.3821 6.95591H15.3822ZM9.99951 13.2406C8.59062 13.2406 7.43464 12.0856 7.43464 10.6757C7.43464 9.26679 8.58954 8.1108 9.99951 8.1108C11.4095 8.1108 12.5644 9.26571 12.5644 10.6757C12.5644 12.0857 11.4084 13.2406 9.99951 13.2406Z"
    fill="white" />
  <path
    d="M9.9996 8.98566C9.04116 8.98566 8.28027 9.74655 8.28027 10.705C8.28027 11.6634 9.04116 12.4243 9.9996 12.4243C10.958 12.4243 11.7189 11.6634 11.7189 10.705C11.7189 9.74655 10.958 8.98566 9.9996 8.98566Z"
    fill="white" />
</svg>