<svg class="svg-standalone-icon" width="100%"
    viewBox="198.92328174552273 158.92328174552273 152.15381689349675 152.15381689349675">
    <g data-paper-data="{&quot;isIcon&quot;:&quot;true&quot;,&quot;iconType&quot;:&quot;icon&quot;,&quot;rawIconId&quot;:&quot;232880&quot;,&quot;source&quot;:&quot;noun&quot;,&quot;selectedEffects&quot;:{&quot;container&quot;:&quot;circle_baseline_outline3&quot;,&quot;transformation&quot;:&quot;&quot;,&quot;pattern&quot;:&quot;&quot;},&quot;isDetailed&quot;:false,&quot;fillRule&quot;:&quot;evenodd&quot;,&quot;blockLetter&quot;:&quot;O&quot;,&quot;blockLetterId&quot;:0,&quot;relativeBoundsIconToContainer&quot;:{&quot;top&quot;:-4.5859336719005086e-7,&quot;left&quot;:-4.557018475086252e-7},&quot;widthRatioIconToContainer&quot;:0.8334586522065435,&quot;heightRatioIconToContainer&quot;:0.8334586522065435,&quot;bounds&quot;:{&quot;x&quot;:198.92328174552273,&quot;y&quot;:158.92328174552273,&quot;width&quot;:152.15381689349675,&quot;height&quot;:152.15381689349675},&quot;iconStyle&quot;:&quot;standalone&quot;,&quot;suitableAsStandaloneIcon&quot;:true}"
        fill-rule="evenodd">
        <path
            d="M238.27244,264.059c-0.64651,-0.32326 -1.05058,-1.05058 -0.96977,-1.85871c0.24243,-1.37383 1.61627,-1.93952 2.66685,-1.37383c0.72733,0.40407 1.61627,0.40407 2.26278,0.08081c0.48488,-0.24243 0.72733,-0.64651 0.80813,-1.2122c0.08081,-0.64651 -0.24243,-1.53546 -0.64651,-2.4244c-0.02955,-0.07386 -0.05939,-0.14805 -0.08938,-0.22256c-0.46204,-1.14811 -0.95626,-2.37624 -0.88038,-3.81812c0.08081,-1.37383 0.72733,-2.50522 1.29301,-3.47498c0.48488,-0.80813 0.88894,-1.53546 0.80813,-2.02034c-0.08081,-0.64651 -0.80813,-1.2122 -1.93952,-1.93952c-0.80814,-0.48488 -1.61627,-1.05058 -2.26278,-1.7779c-0.40407,-0.40407 -0.5657,-0.96976 -0.48488,-1.53546c0.16163,-1.05057 1.2122,-1.69708 2.18197,-1.45464c1.37383,0.32326 3.63661,0.24244 4.12149,-0.88894c0.16163,-0.32326 0,-0.80814 -0.48488,-1.69709c-0.40407,-0.80813 -0.80813,-1.61627 -0.88894,-2.74765c-0.24243,-2.82847 1.69709,-3.95986 2.90929,-4.60637c1.05058,-0.64651 1.2122,-0.80813 1.2122,-1.29301c0.07734,-1.23791 -1.47477,-2.62394 -2.95462,-3.94532c-0.06586,-0.05884 -0.13164,-0.11758 -0.19711,-0.17617c-1.13139,-0.96976 -2.34359,-2.02034 -3.07091,-3.23254c-1.29301,-2.18197 -1.29301,-4.84882 -1.29301,-7.35403c0,-3.23254 0,-5.9802 -2.50522,-8.00054c-0.64651,-0.48488 -0.96976,-1.37383 -0.64651,-2.10115c0.48488,-1.13139 1.85871,-1.45464 2.82848,-0.72733c3.87905,3.15173 3.87905,7.43484 3.87905,10.82902c0,2.10115 0,4.12149 0.88894,5.41451c0.48488,0.72733 1.45464,1.53546 2.34359,2.4244l0.0421,0.03702c2.01282,1.77119 4.48232,3.9441 4.32182,6.99377c-0.08081,2.50522 -1.93952,3.5558 -2.9901,4.20231c-1.13139,0.64651 -1.13139,0.80813 -1.13139,1.2122c0,0.40407 0.24243,0.88894 0.5657,1.45464c0.5657,1.13139 1.29301,2.74765 0.5657,4.60637c-0.5657,1.37383 -1.61627,2.34359 -2.9901,2.82848c0.80814,0.72733 1.45464,1.7779 1.61627,3.07091c0.22555,1.65385 -0.52795,2.95801 -1.15458,4.0427c-0.04704,0.08138 -0.09334,0.16147 -0.13844,0.24042c-0.40407,0.72733 -0.80813,1.37383 -0.80813,1.85871c-0.06699,0.5362 0.19953,1.23928 0.47688,1.97072c0.05697,0.1504 0.11451,0.30208 0.16963,0.45369l0.02797,0.06991c0.47833,1.19507 1.01954,2.54716 0.86099,4.13241c-0.16163,1.7779 -1.2122,3.23255 -2.74765,4.04068c-0.64651,0.48488 -1.61627,0.64651 -2.58604,0.64651c-1.05058,0 -2.02034,-0.24243 -2.9901,-0.72733zM304.3779,277.39325c-1.37383,-1.37383 -2.02034,-3.47498 -1.69709,-5.41451c0.16163,-0.72733 0.40407,-1.45464 0.64651,-2.10115c0.32326,-0.80813 0.5657,-1.61627 0.40407,-1.93952c-0.08081,-0.24243 -0.48488,-0.48488 -0.80813,-0.80813c-0.16163,-0.16163 -0.32326,-0.32326 -0.48488,-0.40407c-1.29301,-1.2122 -1.85871,-2.66685 -1.45464,-3.95986c0.16163,-0.64651 0.64651,-1.53546 1.85871,-2.18197c-1.69708,-1.13139 -2.58604,-3.15172 -2.10115,-4.92962c0.32326,-1.05058 0.96976,-1.7779 1.53546,-2.4244c0.24243,-0.24243 0.5657,-0.64651 0.64651,-0.80813c-0.08081,-0.08081 -0.40407,-0.32326 -1.37383,-0.72733c-2.90929,-1.13139 -3.5558,-2.74765 -3.5558,-3.95986c0,-2.34359 2.10115,-3.39417 3.39417,-4.04068c1.2122,-0.5657 2.26278,-1.45464 3.07091,-2.50522c1.61627,-2.10115 1.7779,-4.04067 1.85871,-6.22263c0.16163,-2.34359 0.32326,-4.92962 2.74765,-7.03077c0.88895,-0.80814 2.50522,-0.48488 2.90929,0.80813c0.24243,0.72733 -0.08081,1.45464 -0.5657,1.93952c-1.2122,1.13139 -1.37383,2.34359 -1.45464,4.60637c-0.16163,2.50522 -0.40407,5.57613 -3.23254,8.80867c-0.96977,1.13139 -2.26278,2.10115 -3.63661,2.74765l-0.08081,0.08081c-0.40407,0.16163 -1.13139,0.5657 -1.37383,0.80813c0.16163,0.16163 0.48488,0.32326 1.13139,0.64651c0.96977,0.32326 3.39417,1.29301 3.63661,3.71742c0.16163,1.61627 -0.80813,2.74766 -1.53546,3.5558c-0.32326,0.32326 -0.64651,0.72733 -0.72733,0.96977c-0.08081,0.24244 0.24243,0.72733 0.72733,0.96977c0.80813,0.40407 1.85871,0.40407 2.9901,0.40407c0.64651,0 1.2122,0.32326 1.53546,0.88894c0.40407,0.64651 0.40407,1.2122 0.08081,1.85871c-0.5657,1.13139 -2.34359,2.26278 -4.20231,2.90929c-0.32326,0.08081 -0.5657,0.08081 -0.72733,0.16163l0.24243,0.24243c0.16163,0.08082 0.24244,0.24244 0.40407,0.32326c0.5657,0.48488 1.29301,1.05057 1.69709,2.02034c0.80814,1.7779 0.24244,3.39417 -0.24243,4.768c-0.16163,0.5657 -0.40407,1.05057 -0.48488,1.45464c-0.16163,0.80814 0.16163,1.69709 0.72733,2.26278c0.40407,0.40407 2.50522,0.88894 3.5558,0.72733c0.96976,-0.16163 1.93952,0.48488 2.10115,1.45464c0.16163,0.96976 -0.48488,1.93952 -1.45464,2.10115h-1.13139c-1.85871,0 -4.36392,-0.5657 -5.57613,-1.7779zM270.2746,237.39055c1.2122,2.18197 1.93952,4.60637 2.10115,7.03077c0.64651,9.94006 -7.27322,17.85978 -16.56677,17.85978c-0.5657,0 -1.05058,0 -1.61627,-0.08081c-0.88894,-0.08081 -1.69709,-0.64651 -1.7779,-1.53546c-0.16163,-1.2122 0.80813,-2.10115 1.93952,-2.02034c4.52556,0.48488 8.88949,-1.37383 11.79878,-5.09125c0.72733,-0.96977 1.37383,-2.02034 1.7779,-3.15172c3.15172,-8.48542 -2.50522,-16.89002 -10.82902,-17.77898c-1.13139,-0.16163 -1.93952,-1.29301 -1.53546,-2.4244c0.32326,-0.88894 1.13139,-1.29301 2.02034,-1.2122c5.33369,0.64651 9.94006,3.63661 12.68773,8.4046zM255.80898,233.67313c6.54589,0.72733 11.23308,6.54589 10.58657,13.01098c-0.5657,6.06102 -5.73776,10.58657 -11.63715,10.58657c-0.40407,0 -0.72733,-0.08081 -1.13139,-0.08081c-0.80813,-0.08081 -1.61627,-0.64651 -1.69709,-1.53546c-0.16163,-1.2122 0.80813,-2.18197 1.93952,-2.02034c4.44475,0.40407 8.48542,-2.82848 8.9703,-7.35403c0.40407,-4.44475 -2.82848,-8.48542 -7.27322,-8.9703c-0.80813,-0.08081 -1.53546,-0.72733 -1.69709,-1.53546c-0.24243,-1.2122 0.80813,-2.18197 1.93952,-2.10115zM260.41535,246.0376c-0.24243,1.85871 -1.13139,3.47498 -2.50522,4.60637c-1.2122,0.96977 -2.74765,1.53546 -4.28311,1.53546h-0.72733c-0.72733,-0.08081 -1.37383,-0.5657 -1.53546,-1.29301c-0.32326,-1.37383 0.72733,-2.50522 1.93952,-2.34359c0.88894,0.08081 1.69709,-0.16163 2.34359,-0.72733c0.64651,-0.48488 1.05058,-1.29301 1.13139,-2.10115c0.16163,-1.69709 -1.13139,-3.31335 -2.82848,-3.47498c-0.88894,-0.08081 -1.61627,-0.88894 -1.61627,-1.7779c0,-1.13139 0.96977,-1.93952 2.02034,-1.85871c3.71742,0.40407 6.46508,3.71742 6.06102,7.43484zM294.11459,278.20138c-0.5657,0.08081 -1.05058,0.08081 -1.61627,0.08081c-9.61681,0 -17.69816,-8.3238 -16.48596,-18.74874c0.24243,-1.93952 0.80813,-3.87905 1.7779,-5.65695c2.74765,-5.09125 7.59647,-8.3238 13.09179,-8.88949c1.05058,-0.08081 2.02034,0.72733 2.02034,1.85871c-0.08081,0.88894 -0.80813,1.69709 -1.69709,1.7779c-8.3238,0.88894 -13.98074,9.45518 -10.7482,17.85978c0.40407,1.05058 0.96977,2.10115 1.69709,2.9901c2.90929,3.79824 7.27322,5.65695 11.79878,5.17206c1.13139,-0.16163 2.10115,0.80813 1.93952,2.02034c-0.16163,0.80813 -0.88894,1.45464 -1.7779,1.53546zM294.68027,273.27175c-0.40407,0.08081 -0.72733,0.08081 -1.13139,0.08081c-5.9802,0 -11.07145,-4.52556 -11.71796,-10.58657c-0.64651,-6.54589 4.12149,-12.36447 10.58657,-13.01098c1.13139,-0.08081 2.10115,0.88894 1.93952,2.10115c-0.16163,0.80813 -0.88894,1.45464 -1.69709,1.53546c-4.52556,0.48488 -7.7581,4.52556 -7.27322,8.9703c0.48488,4.52556 4.52556,7.7581 9.05111,7.35403c1.05058,-0.16163 2.10115,0.80813 1.93952,2.02034c-0.08081,0.80813 -0.80813,1.45464 -1.69709,1.53546zM295.32678,268.1805h-0.72733c-1.53546,0 -2.9901,-0.48488 -4.36392,-1.53546c-1.45464,-1.2122 -2.34359,-2.82848 -2.50522,-4.60637c-0.40407,-3.71742 2.34359,-7.03077 6.06102,-7.43484c1.05058,-0.08081 1.93952,0.64651 2.02034,1.61627c0.16163,0.96977 -0.5657,1.85871 -1.53546,1.93952c-1.29301,0.16163 -2.4244,0.96977 -2.74765,2.18197c-0.40407,1.37383 0.08081,2.66685 1.05058,3.47498c0.64651,0.5657 1.53546,0.80813 2.34359,0.72733c1.2122,-0.08081 2.26278,1.05058 1.93952,2.34359c-0.16163,0.72733 -0.80813,1.2122 -1.53546,1.29301zM230.16461,196.50531c5.84973,-5.84973 12.5677,-10.37894 20.1539,-13.58763c7.85539,-3.32255 16.08258,-4.98383 24.68159,-4.98383c8.59895,0 16.82617,1.66128 24.68162,4.98383c7.58621,3.20869 14.30419,7.7379 20.15394,13.58763c5.84975,5.84971 10.3789,12.56767 13.58744,20.1539c3.32264,7.85536 4.98397,16.08256 4.98397,24.68159c0,8.59895 -1.66133,16.82617 -4.98397,24.68162c-2.55102,6.03158 -5.93685,11.51432 -10.15748,16.44821h3.62614c5.45366,-5.94416 9.75686,-12.64313 12.9096,-20.09692c3.68348,-8.70922 5.52523,-17.83374 5.52523,-27.37354c0,-9.53985 -1.84175,-18.66431 -5.52523,-27.37336c-3.55857,-8.41335 -8.58284,-15.86503 -15.07281,-22.35502c-6.48997,-6.48994 -13.94158,-11.51419 -22.35485,-15.07277c-8.70922,-3.68361 -17.83374,-5.5254 -27.37354,-5.5254c-9.53988,0 -18.66434,1.8418 -27.37336,5.5254c-8.41341,3.55857 -15.86509,8.58284 -22.35502,15.07277c-6.48994,6.48994 -11.51419,13.94161 -15.07277,22.35502c-3.68361,8.70902 -5.5254,17.83348 -5.5254,27.37336c0,9.53979 1.8418,18.66431 5.5254,27.37354c3.15275,7.45379 7.45593,14.15277 12.90957,20.09692h3.62606c-4.22066,-4.9339 -7.60654,-10.41663 -10.15766,-16.44821c-3.32255,-7.85546 -4.98383,-16.08267 -4.98383,-24.68162c0,-8.599 1.66128,-16.8262 4.98383,-24.68159c3.20869,-7.58621 7.7379,-14.30417 13.58763,-20.1539zM328.93098,264.12251c3.06585,-7.24805 4.59878,-14.84196 4.59878,-22.78172c0,-7.93965 -1.53293,-15.53351 -4.59878,-22.78156c-2.96152,-7.00209 -7.14299,-13.20376 -12.5444,-18.60503c-5.40116,-5.40128 -11.60275,-9.58272 -18.60476,-12.54435c-7.2483,-3.06571 -14.8422,-4.59857 -22.78172,-4.59857c-7.93961,0 -15.53346,1.53286 -22.78156,4.59857c-7.00209,2.96163 -13.20377,7.14307 -18.60504,12.54435c-5.40127,5.40127 -9.58272,11.60295 -12.54434,18.60503c-3.06571,7.2481 -4.59857,14.84196 -4.59857,22.78156c0,7.93951 1.53286,15.53341 4.59857,22.78172c2.91483,6.89137 7.01123,13.00741 12.28921,18.34811h83.28335c5.27811,-5.34071 9.37452,-11.45675 12.28926,-18.34811zM247.62681,299.80137c8.70905,3.68348 17.8335,5.52523 27.37336,5.52523c9.53979,0 18.66431,-1.84175 27.37354,-5.52523c6.78538,-2.87002 12.94524,-6.69342 18.47959,-11.47019h-91.70625c5.53437,4.77677 11.69429,8.60016 18.47977,11.47019zM198.92328,235.00019c0,-42.01611 34.0608,-76.07691 76.07691,-76.07691c42.01611,0 76.07691,34.0608 76.07691,76.07691c0,42.01611 -34.0608,76.07691 -76.07691,76.07691c-42.01611,0 -76.07691,-34.0608 -76.07691,-76.07691z"
            data-paper-data="{&quot;isPathIcon&quot;:true}" style="fill: #4B83DB;"></path>
    </g>
</svg>