<svg width="16" height="14" viewBox="0 0 16 14" fill="none" xmlns="http://www.w3.org/2000/svg">
    <path
        d="M5.91677 8.38938H8.00011M8.00011 8.38938H10.0834M8.00011 8.38938V6.30604M8.00011 8.38938V10.4727M14.9446 11.8616C14.9446 12.23 14.7982 12.5832 14.5378 12.8437C14.2773 13.1042 13.924 13.2505 13.5557 13.2505H2.44455C2.0762 13.2505 1.72293 13.1042 1.46246 12.8437C1.20199 12.5832 1.05566 12.23 1.05566 11.8616V2.13938C1.05566 1.77102 1.20199 1.41775 1.46246 1.15728C1.72293 0.896817 2.0762 0.750488 2.44455 0.750488H5.91677L7.30566 2.83382H13.5557C13.924 2.83382 14.2773 2.98015 14.5378 3.24062C14.7982 3.50108 14.9446 3.85435 14.9446 4.22271V11.8616Z"
        stroke="#666666" stroke-width="1.5" stroke-linecap="round" stroke-linejoin="round" />
</svg>